<svg xmlns="http://www.w3.org/2000/svg" viewBox="0 0 130.4 75.5"><title>pray_logo</title><g id="Layer_2" data-name="Layer 2"><g id="Layer_1-2" data-name="Layer 1"><path d="M130.37.13a.25.25,0,0,0-.22-.12H43.55a.25.25,0,0,0-.22.13L0,75.13a.25.25,0,0,0,0,.25.25.25,0,0,0,.22.13h86.6a.25.25,0,0,0,.22-.12l43.3-75A.25.25,0,0,0,130.37.13ZM86.85,74.75,44,.5h6.64L90.17,69ZM51.2.5h6.64L93.78,62.75,90.46,68.5Zm7.22,0h6.64l32.33,56-3.32,5.75Zm7.22,0h6.64L101,50.25,97.68,56Zm7.22,0h6.64L104.61,44l-3.32,5.75Zm7.22,0h6.64l21.51,37.25-3.32,5.75Zm7.22,0h6.64l17.9,31-3.32,5.75ZM94.5.5h6.64l14.29,24.75L112.11,31Zm7.22,0h6.64L119,19l-3.32,5.75Zm7.22,0h6.64l7.07,12.25-3.32,5.75Zm7.22,0h6.64l3.46,6-3.32,5.75ZM43.55.75,86.42,75H.68Zm83,5.25L123.37.5h6.35Z"/></g></g></svg>